<?xml version="1.0" encoding="utf-8"?>
<!-- Generator: Adobe Illustrator 23.1.1, SVG Export Plug-In . SVG Version: 6.00 Build 0)  -->
<svg version="1.1" xmlns="http://www.w3.org/2000/svg" xmlns:xlink="http://www.w3.org/1999/xlink" x="0px" y="0px"
	 viewBox="0 0 375 147" style="enable-background:new 0 0 375 147;" xml:space="preserve">
<style type="text/css">
	.st0{fill:#FFFFFF;}
	.st1{fill:none;stroke:#87BFD9;stroke-width:0.5;stroke-miterlimit:10;}
	.st2{opacity:0.8;fill:#87BFD9;}
	.st3{fill:#87BFD9;}
	.st4{fill:#DBEAFC;}
	.st5{opacity:0.68;}
	.st6{clip-path:url(#SVGID_2_);}
	.st7{opacity:0.9;fill:#DBEAFC;}
	.st8{fill:#FFFFFF;stroke:#D4D8E6;stroke-width:2;stroke-miterlimit:10;}
	.st9{fill:none;stroke:#173D65;stroke-width:0.5;stroke-miterlimit:10;}
	.st10{fill:#173D65;}
	.st11{fill:none;stroke:#DC6556;stroke-width:0.25;stroke-miterlimit:10;}
	.st12{fill:none;stroke:#096C93;stroke-width:0.25;stroke-miterlimit:10;}
	.st13{fill:#DB655B;}
	.st14{fill:#97BEE7;stroke:#FFFFFF;stroke-miterlimit:10;}
	.st15{fill:#6EA4DE;stroke:#FFFFFF;stroke-miterlimit:10;}
	.st16{fill:#DCCCB8;}
	.st17{fill:none;stroke:#173D65;stroke-miterlimit:10;}
	.st18{fill:none;stroke:#87BFD9;stroke-miterlimit:10;}
	.st19{opacity:0.62;fill:none;stroke:#173D65;stroke-width:10;stroke-miterlimit:10;}
	.st20{fill:#C5D8EF;}
	.st21{fill:#9FBEE3;}
	.st22{fill:#79A4D9;}
	.st23{fill:#558ACE;}
	.st24{fill:#3E71B5;}
	.st25{fill:#30588D;}
	.st26{fill:none;stroke:#D4D8E6;stroke-width:5;stroke-miterlimit:10;}
	.st27{fill:none;}
	.st28{fill:none;stroke:#183D65;stroke-miterlimit:10;}
	.st29{opacity:0.7;fill:#173D65;stroke:#FFFFFF;stroke-miterlimit:10;}
	.st30{opacity:0.8;fill:#173D65;stroke:#FFFFFF;stroke-miterlimit:10;}
	.st31{opacity:0.9;fill:#173D65;stroke:#FFFFFF;stroke-miterlimit:10;}
	.st32{fill:#4674B7;stroke:#FFFFFF;stroke-miterlimit:10;}
	.st33{fill:#2E57A0;stroke:#FFFFFF;stroke-miterlimit:10;}
	.st34{fill:#0E3492;stroke:#FFFFFF;stroke-miterlimit:10;}
	.st35{fill:#082C78;stroke:#FFFFFF;stroke-miterlimit:10;}
	.st36{fill:#D4D8E6;}
	.st37{fill:#F09072;}
	.st38{fill:#0B3044;}
	.st39{fill:#00498B;}
	.st40{opacity:0.14;fill:#DCCCB8;}
	.st41{fill:#183D65;}
	.st42{fill:#FFFFFF;stroke:#183D65;stroke-width:0.5;stroke-miterlimit:10;}
	.st43{fill:#F19046;}
	.st44{fill:none;stroke:#183D65;stroke-width:0.5;stroke-miterlimit:10;}
	.st45{fill:#DB655B;stroke:#FFFFFF;stroke-width:2;stroke-miterlimit:10;}
	.st46{fill:#173D65;stroke:#FFFFFF;stroke-width:2;stroke-miterlimit:10;}
	.st47{clip-path:url(#SVGID_6_);}
	.st48{clip-path:url(#SVGID_8_);}
	.st49{clip-path:url(#SVGID_12_);}
	.st50{opacity:0.87;clip-path:url(#SVGID_14_);enable-background:new    ;}
	.st51{clip-path:url(#SVGID_16_);}
	.st52{clip-path:url(#SVGID_18_);fill:#FFFFFF;}
	.st53{fill:#DBEAFC;stroke:#FFFFFF;stroke-miterlimit:10;}
	.st54{fill:#C1D8F1;stroke:#FFFFFF;stroke-miterlimit:10;}
	.st55{fill:#0A5599;stroke:#FFFFFF;stroke-miterlimit:10;}
	.st56{fill:#173D65;stroke:#FFFFFF;stroke-miterlimit:10;}
	.st57{opacity:0.6;fill:#173D65;stroke:#FFFFFF;stroke-miterlimit:10;}
	.st58{fill:#6129CC;}
	.st59{fill:#7C23C8;}
	.st60{fill:#3F21AD;}
	.st61{fill:#2E25AD;}
	.st62{fill:#0B3099;stroke:#FFFFFF;stroke-miterlimit:10;}
	.st63{opacity:0.6;fill:#173D65;}
	.st64{opacity:0.17;fill:#183D65;}
	.st65{fill:none;stroke:#0074BE;stroke-width:0.5;stroke-miterlimit:10;}
	.st66{fill:#0074BE;}
	.st67{opacity:0.14;fill:#183D65;}
	.st68{fill:none;stroke:#D4D8E6;stroke-miterlimit:10;}
	.st69{fill:none;stroke:#D4D8E6;stroke-width:0.5;stroke-miterlimit:10;}
	.st70{opacity:0.8;fill:#173D65;}
	.st71{opacity:0.8;fill:#DC6556;}
	.st72{opacity:0.57;fill:#DC6556;}
	.st73{opacity:0.35;fill:#DC6556;}
	.st74{fill:#DC6556;}
	.st75{opacity:0.8;fill:none;stroke:#173D65;stroke-width:0.5;stroke-miterlimit:10;}
	.st76{fill:none;stroke:#003A70;stroke-miterlimit:10;}
	.st77{fill:#C5D8EF;stroke:#FFFFFF;stroke-miterlimit:10;}
	.st78{fill:#9FBEE3;stroke:#FFFFFF;stroke-miterlimit:10;}
	.st79{fill:#79A4D9;stroke:#FFFFFF;stroke-miterlimit:10;}
	.st80{fill:#558ACE;stroke:#FFFFFF;stroke-miterlimit:10;}
	.st81{fill:#3E71B5;stroke:#FFFFFF;stroke-miterlimit:10;}
	.st82{fill:#30588D;stroke:#FFFFFF;stroke-miterlimit:10;}
</style>
<g id="BG">
</g>
<g id="Layer_7">
</g>
<g id="Layer_8">
</g>
<g id="Layer_1">
</g>
<g id="Layer_4">
</g>
<g id="Layer_3">
</g>
<g id="Layer_2">
	<g>
		<path class="st10" d="M111.97,113.24c0.46,1.39,0.93,3.09,0.93,4.63c0,5.87-5.56,10.96-11.58,10.96c-6.02,0-9.88-2.31-12.04-8.33
			l-8.34-23.77c-0.46-1.39-1.54-2.01-2.93-2.01H53c-2.47,0-4.17-2.01-4.17-4.48c0-2.62,1.7-4.63,4.17-4.63h24.85
			c6.02,0,9.57,2.31,11.27,7.26l8.64,24.54c0.62,1.7,1.54,2.47,3.09,2.47c1.39,0,2.62-1.23,2.62-2.62c0-0.62-0.15-1.23-0.31-1.7
			L72.92,29.43c-0.46-1.39-1.39-2.32-3.4-2.32c-1.85,0-2.93,0.93-3.4,2.32l-33.19,96.01c-0.77,2.16-2.01,3.4-4.48,3.4
			c-2.31,0-4.63-1.54-4.63-4.01c0-0.77,0.15-1.39,0.31-2L58.09,25.1c1.7-5.09,5.87-7.1,11.42-7.1c5.56,0,9.72,2.01,11.58,7.1
			L111.97,113.24z"/>
		<path class="st10" d="M159.36,43.94c11.11,0,21.92,3.86,29.33,12.04c0.77,0.93,1.39,2.01,1.39,3.4c0,2.32-2,4.79-4.48,4.79
			c-1.85,0-3.09-1.08-4.32-2.31c-5.71-5.87-13.28-9.11-22.38-9.11c-19.6,0-32.57,13.59-32.57,33.34c0,19.14,11.73,33.8,31.18,33.8
			c9.72,0,18.37-2.78,25.31-9.88c1.08-1.08,2.16-1.85,3.55-1.85c2.32,0,4.48,2.16,4.48,4.48c0,1.23-0.77,2.47-1.54,3.4
			c-7.26,8.18-18.99,12.81-31.96,12.81c-25.78,0-40.29-19.14-40.29-42.76C117.06,60.92,134.35,43.94,159.36,43.94"/>
		<path class="st10" d="M236.23,52.58c-19.91,0-32.72,14.05-32.72,33.8c0,19.76,12.81,33.81,32.88,33.81
			c19.91,0,32.72-14.05,32.72-33.81c0-19.76-12.81-33.8-32.72-33.8H236.23z M194.24,86.39c0-23.62,15.74-42.45,42.14-42.45
			c26.24,0,41.99,18.83,41.99,42.45s-15.74,42.45-41.99,42.45C209.99,128.83,194.24,110,194.24,86.39"/>
		<path class="st10" d="M317.27,43.94c12.04,0,20.99,3.09,29.02,10.34c1.39,1.23,2.32,2.62,2.32,4.32c0,2.47-2.32,4.78-4.79,4.78
			c-2.01,0-3.09-1.08-4.17-2.31c-5.56-5.87-13.74-8.34-23-8.34c-9.88,0-21.61,4.94-21.61,15.29c0,24.39,56.96,1.39,56.96,36.27
			c0,16.52-17.44,24.54-33.03,24.54c-14.2,0-24.23-2.47-32.42-11.73c-1.08-1.24-1.7-2.63-1.7-4.01c0-2.32,2.01-4.48,4.48-4.48
			c2.01,0,3.4,1.24,4.48,2.78c4.48,5.87,12.19,8.64,24.54,8.64c12.19,0,24.39-4.94,24.39-15.44c0-26.09-56.65-1.23-56.65-37.2
			C286.09,54.74,299.21,43.94,317.27,43.94"/>
	</g>
</g>
<g id="Layer_5">
</g>
<g id="Layer_6">
</g>
</svg>
